<?xml version="1.0" encoding="utf-8"?>
<!-- Generator: Adobe Illustrator 17.1.0, SVG Export Plug-In . SVG Version: 6.00 Build 0)  -->
<!DOCTYPE svg PUBLIC "-//W3C//DTD SVG 1.1//EN" "http://www.w3.org/Graphics/SVG/1.1/DTD/svg11.dtd">
<svg version="1.1" id="Layer_1" xmlns="http://www.w3.org/2000/svg" xmlns:xlink="http://www.w3.org/1999/xlink" x="0px" y="0px"
	 viewBox="0 0 451.822 255.121" enable-background="new 0 0 451.822 255.121" xml:space="preserve">
<g>
	<g>
		<circle fill="#1d232d" cx="360.51" cy="21.295" r="8.858"/>
	</g>
	<g>
		<circle fill="#1d232d" cx="430.081" cy="233.863" r="8.858"/>
	</g>
	<g>
		<circle fill="#1d232d" cx="289.069" cy="233.863" r="8.858"/>
	</g>
	<g>
		<path fill="#1d232d" d="M297.823,245.041c0.08-0.05,0.15-0.11,0.22-0.17c0.17-0.13,0.33-0.27,0.48-0.41
			C298.292,244.661,298.062,244.851,297.823,245.041z M295.502,246.5c-3.38,1.72-7.24,2.01-10.85,0.84
			c-3.61-1.19-6.54-3.7-8.26-7.09c-0.25-0.49-0.47-0.99-0.67-1.5c1.99,5.44,7.23,9.33,13.35,9.33c0.34,0,0.67-0.01,1-0.04
			c0.17-0.01,0.34-0.02,0.51-0.04c0.24-0.02,0.48-0.06,0.72-0.1c0.18-0.02,0.36-0.05,0.53-0.09c0.18-0.03,0.36-0.07,0.53-0.12
			c0.22-0.05,0.42-0.1,0.63-0.16c0.21-0.06,0.42-0.13,0.62-0.2c0.61-0.2,1.2-0.45,1.77-0.74c0.58-0.28,1.13-0.6,1.65-0.97
			c0.17-0.11,0.34-0.23,0.51-0.36c0.1-0.07,0.19-0.14,0.28-0.22C297.102,245.59,296.332,246.081,295.502,246.5z M301.102,241.411
			c0.38-0.59,0.71-1.2,0.98-1.85C301.792,240.201,301.472,240.82,301.102,241.411z M302.082,239.561c0.2-0.43,0.36-0.87,0.5-1.32
			C302.432,238.69,302.263,239.13,302.082,239.561z M424.173,246.57c-3.38-1.72-5.9-4.65-7.09-8.28l-1.19-3.58
			c0.07,1.19,0.29,2.39,0.68,3.57c1.86,5.7,7.05,9.59,13,9.79C427.713,247.94,425.883,247.44,424.173,246.57z M269.152,226.551
			c0.271-0.72,0.57-1.42,0.91-2.1C269.722,225.13,269.412,225.831,269.152,226.551z M268.902,227.23c-0.03,0.11-0.06,0.21-0.09,0.32
			c0.05-0.17,0.1-0.34,0.16-0.5C268.942,227.11,268.923,227.17,268.902,227.23z"/>
		<path fill="#1d232d" d="M450.772,227.291l-11.68-35.42c-2.85-8.73-10.94-14.61-20.12-14.63l-118.27-0.07
			c-9.18,0.02-17.26,5.9-20.12,14.62l-11.68,35.44c0.021-0.06,0.04-0.12,0.07-0.18c-0.06,0.16-0.11,0.33-0.16,0.5
			c-0.17,0.52-0.31,1.05-0.43,1.59c-0.04,0.18-0.08,0.36-0.12,0.54c-0.07,0.31-0.12,0.63-0.17,0.95c-0.05,0.35-0.09,0.71-0.13,1.06
			c-0.03,0.36-0.061,0.72-0.08,1.08c-0.02,0.3-0.03,0.59-0.02,0.89c0,0.11,0,0.21-0.01,0.32c0,0.33,0.01,0.65,0.03,0.97
			c0.01,0.23,0.03,0.47,0.05,0.7c0.01,0.18,0.02,0.37,0.05,0.56c0.01,0.07,0.01,0.14,0.03,0.22c0.04,0.36,0.09,0.73,0.16,1.09
			c0.07,0.4,0.15,0.81,0.25,1.21c0.1,0.41,0.21,0.81,0.33,1.21c0.12,0.39,0.25,0.78,0.4,1.17c0.11,0.32,0.24,0.64,0.38,0.96
			c0.02,0.07,0.05,0.14,0.08,0.21c0.02,0.04,0.05,0.09,0.07,0.14c0.02,0.05,0.04,0.09,0.05,0.14l0.01,0.01
			c0.13,0.28,0.27,0.57,0.41,0.85c0.28,0.55,0.58,1.09,0.9,1.61c0.17,0.26,0.33,0.51,0.5,0.76c0.15,0.23,0.31,0.44,0.47,0.66
			c0.07,0.09,0.13,0.18,0.2,0.27c0.3,0.39,0.61,0.77,0.93,1.14c0.04,0.04,0.07,0.08,0.1,0.12c0.2,0.21,0.4,0.43,0.6,0.63
			c0.21,0.22,0.42,0.43,0.64,0.64c0.25,0.24,0.5,0.47,0.76,0.69c0.26,0.22,0.53,0.44,0.8,0.65c0.12,0.09,0.24,0.19,0.36,0.27
			c0.12,0.09,0.24,0.18,0.37,0.27l0.75,0.51c0.34,0.22,0.68,0.42,1.03,0.62c0.08,0.04,0.15,0.09,0.23,0.13
			c0.71,0.39,1.44,0.73,2.19,1.04c0.16,0.07,0.33,0.14,0.5,0.2c0.33,0.13,0.66,0.25,1,0.36c5.39,1.76,11.14,1.32,16.19-1.25
			c0.36-0.18,0.71-0.37,1.05-0.57c0.04-0.02,0.07-0.04,0.11-0.06c0.02-0.01,0.03-0.02,0.05-0.03c0.19-0.12,0.38-0.24,0.56-0.36
			c0.1-0.05,0.2-0.11,0.3-0.18c0.38-0.24,0.74-0.5,1.09-0.77c0.16-0.12,0.32-0.25,0.48-0.37c0.24-0.18,0.47-0.38,0.69-0.57
			c0.27-0.23,0.52-0.46,0.77-0.7c0.22-0.2,0.43-0.42,0.64-0.64c0.17-0.17,0.33-0.34,0.48-0.52c0.17-0.18,0.32-0.35,0.47-0.54
			c0.83-0.98,1.56-2.04,2.19-3.17c0.14-0.25,0.28-0.51,0.41-0.77c0.189-0.38,0.38-0.76,0.54-1.15c0.13-0.29,0.25-0.57,0.36-0.86
			c0.01-0.03,0.02-0.05,0.03-0.07c0.12-0.32,0.23-0.65,0.34-0.98l0.09-0.27l18.66-55.97l63.7,0.03l17.3,51.9l0.01,0.02l1.45,4.34
			c1.76,5.39,5.51,9.77,10.57,12.33c2.49,1.26,5.15,2.01,7.85,2.23c0.04,0,0.07,0.01,0.11,0.01c0.08,0.01,0.16,0.01,0.24,0.01
			c0.45,0.05,0.91,0.06,1.37,0.06c2.22,0,4.45-0.36,6.61-1.06C448.312,250.42,454.402,238.42,450.772,227.291z M269.152,226.551
			c0.26-0.72,0.57-1.42,0.91-2.1C269.722,225.13,269.423,225.831,269.152,226.551z M302.682,237.951l-0.04,0.13
			c-0.02,0.05-0.03,0.11-0.06,0.16c-0.14,0.45-0.3,0.89-0.5,1.32c-0.27,0.65-0.6,1.26-0.98,1.85c-0.11,0.19-0.24,0.38-0.37,0.57
			c-0.14,0.19-0.28,0.38-0.42,0.56c-0.13,0.18-0.28,0.37-0.44,0.54c-0.14,0.18-0.29,0.34-0.46,0.51c-0.14,0.15-0.28,0.29-0.44,0.44
			c-0.14,0.14-0.29,0.29-0.45,0.43c-0.15,0.14-0.31,0.28-0.48,0.41c-0.07,0.06-0.14,0.12-0.22,0.17c-0.09,0.08-0.18,0.15-0.28,0.22
			c-0.17,0.13-0.34,0.25-0.51,0.36c-0.52,0.37-1.07,0.69-1.65,0.97c-0.57,0.29-1.16,0.54-1.77,0.74c-0.2,0.07-0.41,0.14-0.62,0.2
			c-0.21,0.06-0.42,0.12-0.63,0.16c-0.17,0.05-0.35,0.09-0.53,0.12c-0.17,0.04-0.35,0.07-0.53,0.09c-0.24,0.04-0.48,0.08-0.72,0.1
			c-0.17,0.02-0.34,0.03-0.51,0.04c-0.33,0.03-0.66,0.04-1,0.04c-6.12,0-11.36-3.89-13.35-9.33c0-0.02,0-0.03-0.01-0.04
			c-0.1-0.26-0.19-0.52-0.26-0.79c-0.08-0.24-0.15-0.49-0.2-0.74c-0.01-0.05-0.02-0.1-0.04-0.14c-0.16-0.7-0.271-1.43-0.32-2.17
			c-0.01-0.09-0.02-0.18-0.02-0.28c-0.02-0.25-0.02-0.49-0.02-0.74c0-0.24,0.01-0.48,0.02-0.72c0.01-0.2,0.02-0.41,0.04-0.61
			c0.01-0.12,0.02-0.25,0.04-0.37c0.02-0.18,0.05-0.36,0.08-0.53l0.03-0.21c0.02-0.14,0.05-0.28,0.08-0.41
			c0.05-0.24,0.1-0.48,0.17-0.72c0.05-0.22,0.11-0.43,0.18-0.64c1.8-5.78,7.21-9.99,13.58-9.99c7.84,0,14.21,6.37,14.21,14.21
			C303.283,235.28,303.073,236.65,302.682,237.951z M307.522,223.42c-3.65-6.43-10.55-10.77-18.45-10.77
			c-3.05,0-5.96,0.65-8.59,1.82l6.76-20.49c1.91-5.86,7.33-9.8,13.47-9.81l19.89,0.01L307.522,223.42z M411.942,222.88l-12.88-38.65
			l19.9,0.01c6.15,0.01,11.57,3.95,13.479,9.81l6.82,20.67c-2.8-1.34-5.92-2.08-9.18-2.08c-2.23,0-4.45,0.36-6.6,1.06
			C418.472,215.34,414.482,218.681,411.942,222.88z M416.573,238.28c-0.39-1.18-0.61-2.38-0.68-3.57v-0.01
			c-0.37-6.29,3.51-12.3,9.77-14.35c1.44-0.47,2.93-0.71,4.42-0.71c6.16,0,11.59,3.94,13.51,9.81c1.18,3.61,0.88,7.46-0.83,10.84
			c-1.72,3.39-4.66,5.9-8.26,7.08c-1.44,0.48-2.93,0.71-4.42,0.71h-0.01c-0.16,0-0.31,0-0.47-0.01h-0.03
			C423.622,247.871,418.432,243.98,416.573,238.28z"/>
		<path fill="#1d232d" d="M268.902,227.23c-0.03,0.11-0.06,0.21-0.09,0.32c0.05-0.17,0.1-0.34,0.16-0.5
			C268.942,227.11,268.923,227.17,268.902,227.23z M269.152,226.551c0.271-0.72,0.57-1.42,0.91-2.1
			C269.722,225.13,269.412,225.831,269.152,226.551z"/>
	</g>
	<path fill="#1d232d" d="M415.332,120.98l-34.5-103.5c-0.36-2.01-1.02-3.98-1.97-5.85c-2.49-4.92-6.7-8.58-11.88-10.4
		c-0.06-0.02-0.11-0.04-0.17-0.06c-0.1-0.04-0.18-0.08-0.28-0.11c-0.19-0.06-0.38-0.1-0.57-0.16c-0.35-0.1-0.71-0.2-1.061-0.29
		c-0.229-0.05-0.47-0.11-0.7-0.16c-0.59-0.12-1.18-0.23-1.79-0.3c-1.14-0.14-2.28-0.18-3.41-0.13c-0.3,0.01-0.6,0.03-0.89,0.06
		c-0.3,0.02-0.6,0.05-0.9,0.09c-0.3,0.04-0.59,0.09-0.89,0.14c-0.3,0.05-0.59,0.11-0.89,0.17c-0.27,0.06-0.54,0.12-0.81,0.19
		c-0.6,0.16-1.2,0.35-1.8,0.56c-0.96,0.33-1.89,0.73-2.78,1.18c-0.05,0.03-0.1,0.05-0.15,0.08c-0.27,0.14-0.54,0.29-0.8,0.44
		c-0.26,0.15-0.52,0.31-0.78,0.48c-0.22,0.14-0.44,0.28-0.66,0.44c-0.28,0.19-0.56,0.4-0.83,0.61c-2.49,1.9-4.54,4.35-6,7.23
		c-0.91,1.78-1.55,3.65-1.92,5.55l-34.56,103.69c-1.76,5.39-1.32,11.14,1.24,16.19c2.57,5.05,6.94,8.81,12.33,10.57
		c2.14,0.7,4.36,1.05,6.59,1.05l70.67,0.07c2.24,0,4.46-0.36,6.59-1.05c5.39-1.76,9.77-5.52,12.33-10.57
		C416.662,132.13,417.102,126.38,415.332,120.98z M347.162,14.791c1.72-3.38,4.65-5.9,8.26-7.08c1.44-0.47,2.93-0.71,4.42-0.71
		c6.16,0,11.59,3.94,13.51,9.81c0.18,0.54,0.32,1.09,0.43,1.64v0.01c0.63,3.11,0.19,6.32-1.26,9.19c-1.72,3.39-4.66,5.91-8.27,7.09
		c-1.43,0.47-2.92,0.7-4.42,0.7c-6.16,0-11.59-3.94-13.51-9.8c-0.79-2.4-0.92-4.91-0.4-7.32
		C346.173,17.11,346.582,15.92,347.162,14.791z M368.463,40.61l-8.63,25.9l-8.64-25.9c2.66,1.18,5.59,1.83,8.64,1.83
		c2.24,0,4.46-0.35,6.6-1.05C367.122,41.161,367.803,40.9,368.463,40.61z M324.502,141.741c-1.49,0-2.98-0.23-4.41-0.71
		c-3.61-1.18-6.55-3.69-8.26-7.08c-1.72-3.38-2.02-7.23-0.85-10.83l30.17-90.49l14.99,44.95l-21.39,64.17L324.502,141.741z
		 M342.122,141.761l17.71-53.11l17.71,53.14L342.122,141.761z M407.852,134.021c-1.72,3.39-4.65,5.9-8.26,7.08
		c-1.44,0.47-2.92,0.71-4.42,0.71l-10.25-0.01l-21.41-64.22l14.99-44.95l30.18,90.54C409.863,126.78,409.573,130.63,407.852,134.021
		z"/>
</g>
<g>
	<g>
		<circle fill="#1d232d" cx="21.215" cy="21.26" r="8.858"/>
	</g>
	<g>
		<circle fill="#1d232d" cx="162.947" cy="21.26" r="8.858"/>
	</g>
	<g>
		<circle fill="#1d232d" cx="162.947" cy="233.859" r="8.858"/>
	</g>
	<g>
		<circle fill="#1d232d" cx="21.215" cy="233.859" r="8.858"/>
	</g>
	<path fill="#1d232d" d="M162.95,0.045c-11.7,0-21.22,9.52-21.22,21.22v87.31h-99.3v-87.31c0-11.7-9.52-21.22-21.22-21.22
		C9.52,0.045,0,9.565,0,21.266v73.09c0,11.7,9.52,21.22,21.21,21.22h141.74c11.7,0,21.21-9.52,21.21-21.22v-73.09
		C184.16,9.565,174.65,0.045,162.95,0.045z M35.43,108.575H21.21c-7.83,0-14.21-6.38-14.21-14.22v-57.37
		c3.76,3.41,8.74,5.49,14.21,5.49c5.47,0,10.45-2.08,14.22-5.49V108.575z M21.21,35.476c-7.83,0-14.21-6.38-14.21-14.21
		c0-7.84,6.38-14.22,14.21-14.22c7.84,0,14.22,6.38,14.22,14.22C35.43,29.095,29.05,35.476,21.21,35.476z M162.95,7.045
		c7.84,0,14.21,6.38,14.21,14.22c0,7.83-6.37,14.21-14.21,14.21s-14.22-6.38-14.22-14.21C148.73,13.425,155.11,7.045,162.95,7.045z
		 M177.16,94.355c0,7.84-6.37,14.22-14.21,14.22h-14.22v-71.59c3.77,3.41,8.75,5.49,14.22,5.49s10.45-2.08,14.21-5.49V94.355z"/>
	<g>
		<path fill="#1d232d" d="M162.95,144.005H21.21c-11.69,0-21.21,9.52-21.21,21.22v68.63c0,11.7,9.52,21.22,21.21,21.22
			c11.7,0,21.22-9.52,21.22-21.22v-82.85h99.3v82.85c0,11.7,9.52,21.22,21.22,21.22s21.21-9.52,21.21-21.22v-68.63
			C184.16,153.525,174.65,144.005,162.95,144.005z M21.21,248.075c-7.83,0-14.21-6.38-14.21-14.22s6.38-14.21,14.21-14.21
			c7.84,0,14.22,6.37,14.22,14.21S29.05,248.075,21.21,248.075z M35.43,218.135c-3.77-3.41-8.75-5.49-14.22-5.49
			c-5.47,0-10.45,2.08-14.21,5.49v-52.91c0-7.84,6.38-14.22,14.21-14.22h14.22V218.135z M162.95,248.075
			c-7.84,0-14.22-6.38-14.22-14.22s6.38-14.21,14.22-14.21s14.21,6.37,14.21,14.21S170.79,248.075,162.95,248.075z M162.95,212.646
			c-5.47,0-10.45,2.08-14.22,5.49v-67.13h14.22c7.84,0,14.21,6.38,14.21,14.22v52.91C173.4,214.726,168.42,212.646,162.95,212.646z"
			/>
	</g>
</g>
<g>
	<g>
		<g>
			<circle fill="#1d232d" cx="231.459" cy="178.67" r="8.858"/>
		</g>
		<g>
			<path fill="#1d232d" d="M231.459,199.886c-11.699,0-21.217-9.518-21.217-21.217c0-11.698,9.518-21.216,21.217-21.216
				s21.217,9.518,21.217,21.216C252.675,190.369,243.158,199.886,231.459,199.886z M231.459,164.454
				c-7.839,0-14.217,6.377-14.217,14.216s6.378,14.217,14.217,14.217s14.217-6.378,14.217-14.217S239.297,164.454,231.459,164.454z"
				/>
		</g>
	</g>
	<g>
		<g>
			<circle fill="#1d232d" cx="231.459" cy="76.45" r="8.858"/>
		</g>
		<g>
			<path fill="#1d232d" d="M231.459,97.667c-11.699,0-21.217-9.518-21.217-21.217c0-11.698,9.518-21.216,21.217-21.216
				s21.217,9.518,21.217,21.216C252.675,88.149,243.158,97.667,231.459,97.667z M231.459,62.234
				c-7.839,0-14.217,6.377-14.217,14.216s6.378,14.217,14.217,14.217s14.217-6.378,14.217-14.217S239.297,62.234,231.459,62.234z"/>
		</g>
	</g>
</g>
</svg>
